<svg xmlns="http://www.w3.org/2000/svg" viewBox="250 220 900 900" role="img" aria-labelledby="title desc">
  <title id="title">Apex Ray logo</title>
  <desc id="desc">A prism-style Apex Ray mark with two inspection rays and subtle glints.</desc>
  <defs>
    <linearGradient id="leftFace" x1="430" y1="438" x2="640" y2="842" gradientUnits="userSpaceOnUse">
      <stop offset="0" stop-color="#ffffff"/>
      <stop offset=".56" stop-color="#f5f8f8"/>
      <stop offset="1" stop-color="#e8eef0"/>
    </linearGradient>
    <linearGradient id="darkFace" x1="602" y1="392" x2="842" y2="780" gradientUnits="userSpaceOnUse">
      <stop offset="0" stop-color="#273136"/>
      <stop offset=".58" stop-color="#172126"/>
      <stop offset="1" stop-color="#10191d"/>
    </linearGradient>
    <linearGradient id="faceReflection" x1="650" y1="420" x2="716" y2="622" gradientUnits="userSpaceOnUse">
      <stop offset="0" stop-color="#34d9f5" stop-opacity=".34"/>
      <stop offset=".62" stop-color="#1bbfe6" stop-opacity=".08"/>
      <stop offset="1" stop-color="#1bbfe6" stop-opacity="0"/>
    </linearGradient>
    <linearGradient id="baseLeft" x1="332" y1="746" x2="623" y2="962" gradientUnits="userSpaceOnUse">
      <stop offset="0" stop-color="#495960"/>
      <stop offset=".48" stop-color="#2b383e"/>
      <stop offset="1" stop-color="#172126"/>
    </linearGradient>
    <linearGradient id="baseRight" x1="634" y1="957" x2="912" y2="744" gradientUnits="userSpaceOnUse">
      <stop offset="0" stop-color="#0d1519"/>
      <stop offset=".5" stop-color="#172228"/>
      <stop offset="1" stop-color="#304047"/>
    </linearGradient>
    <linearGradient id="baseBevel" x1="348" y1="756" x2="898" y2="756" gradientUnits="userSpaceOnUse">
      <stop offset="0" stop-color="#d8eef3" stop-opacity=".42"/>
      <stop offset=".52" stop-color="#ffffff" stop-opacity=".18"/>
      <stop offset="1" stop-color="#55d8ef" stop-opacity=".24"/>
    </linearGradient>
    <linearGradient id="rayMain" x1="642" y1="398" x2="1104" y2="294" gradientUnits="userSpaceOnUse">
      <stop offset="0" stop-color="#65f2ff"/>
      <stop offset=".42" stop-color="#15c2ec"/>
      <stop offset="1" stop-color="#058ec9"/>
    </linearGradient>
    <linearGradient id="raySecondary" x1="595" y1="392" x2="412" y2="316" gradientUnits="userSpaceOnUse">
      <stop offset="0" stop-color="#9af7ff" stop-opacity=".78"/>
      <stop offset=".58" stop-color="#2fc9ed" stop-opacity=".36"/>
      <stop offset="1" stop-color="#0793cd" stop-opacity="0"/>
    </linearGradient>
    <linearGradient id="sweep" x1="560" y1="0" x2="860" y2="0" gradientUnits="userSpaceOnUse">
      <stop offset="0" stop-color="#ffffff" stop-opacity="0"/>
      <stop offset=".46" stop-color="#ffffff" stop-opacity="0"/>
      <stop offset=".5" stop-color="#ffffff" stop-opacity=".66"/>
      <stop offset=".54" stop-color="#ffffff" stop-opacity="0"/>
      <stop offset="1" stop-color="#ffffff" stop-opacity="0"/>
    </linearGradient>
    <linearGradient id="glintStroke" x1="0" y1="0" x2="1" y2="0">
      <stop offset="0" stop-color="#ffffff" stop-opacity="0"/>
      <stop offset=".38" stop-color="#ffffff" stop-opacity=".38"/>
      <stop offset=".5" stop-color="#f5feff" stop-opacity="1"/>
      <stop offset=".62" stop-color="#8af5ff" stop-opacity=".48"/>
      <stop offset="1" stop-color="#15c2ec" stop-opacity="0"/>
    </linearGradient>
    <clipPath id="mainRayClip">
      <path d="M642 398 1104 294 668 438Z"/>
    </clipPath>
    <clipPath id="secondaryRayClip">
      <path d="M601 392 410 310 589 426Z"/>
    </clipPath>
    <filter id="softBaseShadow" x="-18%" y="-18%" width="136%" height="148%" color-interpolation-filters="sRGB">
      <feDropShadow dx="0" dy="18" stdDeviation="18" flood-color="#11191d" flood-opacity=".14"/>
    </filter>
    <filter id="rayGlow" x="-10%" y="-50%" width="120%" height="200%" color-interpolation-filters="sRGB">
      <feGaussianBlur stdDeviation="3.5" result="blur"/>
      <feColorMatrix in="blur" type="matrix" values="0 0 0 0 0.02 0 0 0 0 0.72 0 0 0 0 0.92 0 0 0 .32 0" result="glow"/>
      <feMerge>
        <feMergeNode in="glow"/>
        <feMergeNode in="SourceGraphic"/>
      </feMerge>
    </filter>
    <filter id="sparkGlow" x="-120%" y="-120%" width="340%" height="340%" color-interpolation-filters="sRGB">
      <feGaussianBlur stdDeviation="4" result="blur"/>
      <feColorMatrix in="blur" type="matrix" values="0 0 0 0 0.02 0 0 0 0 0.74 0 0 0 0 0.92 0 0 0 .46 0" result="glow"/>
      <feMerge>
        <feMergeNode in="glow"/>
        <feMergeNode in="SourceGraphic"/>
      </feMerge>
    </filter>
  </defs>


  <g filter="url(#softBaseShadow)" stroke="#10181c" stroke-width="2.6" stroke-linejoin="round">
    <path d="M327 744 621 918 916 744 916 802 621 978 327 802Z" fill="#172024"/>
    <path d="M327 744 621 918 621 978 327 802Z" fill="url(#baseLeft)"/>
    <path d="M621 918 916 744 916 802 621 978Z" fill="url(#baseRight)"/>
    <path d="M349 756 621 918 894 756" fill="none" stroke="url(#baseBevel)" stroke-width="5" stroke-linecap="round" stroke-linejoin="round"/>
    <path d="M621 918 621 978" fill="none" stroke="#080e11" stroke-opacity=".64" stroke-width="3.2" stroke-linecap="round"/>
  </g>

  <path d="M620 384 871 718 621 862Z" fill="url(#darkFace)"/>
  <path d="M620 384 377 718 621 862Z" fill="url(#leftFace)"/>
  <path d="M642 416 709 507 625 815Z" fill="url(#faceReflection)"/>

  <g filter="url(#rayGlow)">
    <path d="M642 398 1104 294 668 438Z" fill="url(#rayMain)"/>
    <path d="M601 392 410 310 589 426Z" fill="url(#raySecondary)"/>
    <g clip-path="url(#mainRayClip)">
      <g transform="rotate(-13 872 366)">
        <rect x="590" y="268" width="250" height="210" fill="url(#sweep)" opacity=".28"/>
      </g>
    </g>
    <g clip-path="url(#secondaryRayClip)">
      <g transform="rotate(23 506 366)">
        <rect x="455" y="270" width="132" height="178" fill="url(#sweep)" opacity=".18"/>
      </g>
    </g>
    <path d="M780 354 872 331" fill="none" stroke="url(#glintStroke)" stroke-width="7.2" stroke-linecap="round" opacity=".78"/>
    <path d="M716 392 790 360" fill="none" stroke="url(#glintStroke)" stroke-width="6.2" stroke-linecap="round" opacity=".62"/>
    <path d="M534 360 458 326" fill="none" stroke="url(#glintStroke)" stroke-width="5.8" stroke-linecap="round" opacity=".56"/>
    <g opacity=".34" stroke="#7ef2ff" stroke-linecap="round">
      <path d="M790 352 858 335" stroke-width="3.6"/>
      <path d="M728 386 778 364" stroke-width="3"/>
      <path d="M523 355 472 332" stroke-width="2.8"/>
    </g>
  </g>

  <path d="M620 384 621 862" fill="none" stroke="#151a1d" stroke-width="4.4" stroke-linecap="butt"/>
  <path d="M620 384 377 718 621 862 871 718Z" fill="none" stroke="#151a1d" stroke-width="4.4" stroke-linejoin="round" stroke-linecap="round"/>

  <g filter="url(#sparkGlow)" opacity=".9" stroke-linecap="round" stroke-linejoin="round">
    <circle cx="620" cy="384" r="11" fill="#2bd7f0" opacity=".22"/>
    <circle cx="620" cy="384" r="5.8" fill="#f5feff"/>
    <path d="M620 340 620 375" stroke="#9af7ff" stroke-width="5.8"/>
    <path d="M620 393 620 428" stroke="#56e5fb" stroke-width="4.6"/>
    <path d="M576 384 611 384" stroke="#9af7ff" stroke-width="5.8"/>
    <path d="M629 384 678 384" stroke="#56e5fb" stroke-width="4.8"/>
    <path d="M594 358 613 377" stroke="#9af7ff" stroke-width="4.2"/>
    <path d="M629 391 650 412" stroke="#25cdec" stroke-width="3.8"/>
  </g>
</svg>
